<svg width="1024" height="1024" viewBox="0 0 1024 1024" fill="none" xmlns="http://www.w3.org/2000/svg">
<g clip-path="url(#clip0_689_2)">
<path d="M421.236 101.848C421.236 115.224 423.871 128.468 428.989 140.825C434.108 153.182 441.61 164.41 451.068 173.868C460.525 183.325 471.753 190.828 484.11 195.946C496.467 201.064 509.712 203.699 523.087 203.699C536.462 203.699 549.706 201.064 562.063 195.946C574.42 190.828 585.648 183.325 595.106 173.868C604.564 164.41 612.066 153.182 617.184 140.825C622.303 128.468 624.937 115.224 624.937 101.848C624.937 74.836 614.206 48.93 595.106 29.8293C576.005 10.7287 550.099 -0.00195312 523.087 -0.00195312C496.074 -0.00195312 470.168 10.7287 451.068 29.8293C431.967 48.93 421.236 74.836 421.236 101.848V101.848Z" fill="#FE961B"/>
<path d="M673.805 187.508C673.805 200.119 676.289 212.607 681.115 224.258C685.941 235.909 693.014 246.495 701.932 255.412C710.849 264.33 721.435 271.403 733.086 276.229C744.738 281.056 757.225 283.539 769.836 283.539C782.447 283.539 794.935 281.056 806.586 276.229C818.237 271.403 828.823 264.33 837.741 255.412C846.658 246.495 853.732 235.909 858.558 224.258C863.384 212.607 865.868 200.119 865.868 187.508C865.868 174.897 863.384 162.409 858.558 150.758C853.732 139.107 846.658 128.521 837.741 119.604C828.823 110.686 818.237 103.613 806.586 98.7865C794.935 93.9605 782.447 91.4766 769.836 91.4766C757.225 91.4766 744.738 93.9605 733.086 98.7865C721.435 103.613 710.849 110.686 701.932 119.604C693.014 128.521 685.941 139.107 681.115 150.758C676.289 162.409 673.805 174.897 673.805 187.508V187.508Z" fill="#FE961B"/>
<path d="M813.076 381.396C813.076 405.321 822.58 428.267 839.498 445.184C856.416 462.102 879.361 471.606 903.287 471.606C927.212 471.606 950.157 462.102 967.075 445.184C983.993 428.267 993.497 405.321 993.497 381.396C993.497 357.471 983.993 334.525 967.075 317.608C950.157 300.69 927.212 291.186 903.287 291.186C879.361 291.186 856.416 300.69 839.498 317.608C822.58 334.525 813.076 357.471 813.076 381.396Z" fill="#FE961B"/>
<path d="M821.561 609.722C821.559 620.805 823.741 631.78 827.982 642.02C832.222 652.259 838.438 661.564 846.275 669.401C854.111 677.238 863.415 683.455 873.654 687.697C883.893 691.938 894.868 694.122 905.951 694.122C917.034 694.122 928.009 691.938 938.248 687.697C948.487 683.455 957.791 677.238 965.627 669.401C973.464 661.564 979.68 652.259 983.92 642.02C988.161 631.78 990.343 620.805 990.342 609.722C990.343 598.639 988.161 587.664 983.92 577.424C979.68 567.184 973.464 557.88 965.627 550.043C957.791 542.206 948.487 535.989 938.248 531.747C928.009 527.505 917.034 525.322 905.951 525.322C894.868 525.322 883.893 527.505 873.654 531.747C863.415 535.989 854.111 542.206 846.275 550.043C838.438 557.88 832.222 567.184 827.982 577.424C823.741 587.664 821.559 598.639 821.561 609.722V609.722Z" fill="#FE961B"/>
<path d="M721.426 786.128C721.425 796.447 723.456 806.665 727.404 816.199C731.352 825.732 737.139 834.395 744.435 841.692C751.731 848.989 760.393 854.777 769.927 858.726C779.46 862.675 789.678 864.708 799.996 864.708C810.315 864.708 820.533 862.675 830.066 858.726C839.599 854.777 848.261 848.989 855.557 841.692C862.853 834.395 868.641 825.732 872.589 816.199C876.537 806.665 878.568 796.447 878.567 786.128C878.568 775.809 876.537 765.592 872.589 756.058C868.641 746.524 862.853 737.862 855.557 730.565C848.261 723.268 839.599 717.48 830.066 713.531C820.533 709.581 810.315 707.549 799.996 707.549C789.678 707.549 779.46 709.581 769.927 713.531C760.393 717.48 751.731 723.268 744.435 730.565C737.139 737.862 731.352 746.524 727.404 756.058C723.456 765.592 721.425 775.809 721.426 786.128V786.128Z" fill="#FE961B"/>
<path d="M532.445 889.71C532.445 909.004 540.11 927.509 553.753 941.152C567.397 954.795 585.901 962.46 605.196 962.46C624.491 962.46 642.995 954.795 656.638 941.152C670.282 927.509 677.946 909.004 677.946 889.71C677.946 870.415 670.282 851.911 656.638 838.267C642.995 824.624 624.491 816.959 605.196 816.959C585.901 816.959 567.397 824.624 553.753 838.267C540.11 851.911 532.445 870.415 532.445 889.71Z" fill="#FE961B"/>
<path d="M330.217 877.857C330.217 895.609 337.269 912.633 349.821 925.185C362.373 937.737 379.397 944.789 397.148 944.789C414.9 944.789 431.924 937.737 444.476 925.185C457.028 912.633 464.08 895.609 464.08 877.857C464.08 860.106 457.028 843.082 444.476 830.53C431.924 817.977 414.9 810.926 397.148 810.926C379.397 810.926 362.373 817.977 349.821 830.53C337.269 843.082 330.217 860.106 330.217 877.857V877.857Z" fill="#FE961B"/>
<path d="M162.555 762.484C162.554 770.51 164.134 778.457 167.204 785.872C170.275 793.287 174.776 800.025 180.451 805.701C186.126 811.376 192.863 815.878 200.277 818.95C207.692 822.021 215.64 823.602 223.665 823.602C231.691 823.602 239.638 822.021 247.053 818.95C254.468 815.878 261.205 811.376 266.88 805.701C272.555 800.025 277.056 793.287 280.126 785.872C283.197 778.457 284.777 770.51 284.776 762.484C284.777 754.458 283.197 746.51 280.126 739.095C277.056 731.68 272.555 724.942 266.88 719.267C261.205 713.591 254.468 709.089 247.053 706.018C239.638 702.946 231.691 701.365 223.665 701.365C215.64 701.365 207.692 702.946 200.277 706.018C192.863 709.089 186.126 713.591 180.451 719.267C174.776 724.942 170.275 731.68 167.204 739.095C164.134 746.51 162.554 754.458 162.555 762.484V762.484Z" fill="#FE961B"/>
<path d="M79.1934 587.148C79.1934 594.409 80.6235 601.599 83.4021 608.307C86.1807 615.015 90.2534 621.11 95.3876 626.245C100.522 631.379 106.617 635.451 113.325 638.23C120.033 641.009 127.223 642.439 134.484 642.439C141.745 642.439 148.935 641.009 155.643 638.23C162.351 635.451 168.446 631.379 173.58 626.245C178.715 621.11 182.787 615.015 185.566 608.307C188.345 601.599 189.775 594.409 189.775 587.148C189.775 579.887 188.345 572.697 185.566 565.989C182.787 559.281 178.715 553.186 173.58 548.052C168.446 542.917 162.351 538.845 155.643 536.066C148.935 533.288 141.745 531.857 134.484 531.857C127.223 531.857 120.033 533.288 113.325 536.066C106.617 538.845 100.522 542.917 95.3876 548.052C90.2534 553.186 86.1807 559.281 83.4021 565.989C80.6235 572.697 79.1934 579.887 79.1934 587.148V587.148Z" fill="#FE961B"/>
<path d="M85.9258 408.896C85.9258 422.017 91.1379 434.6 100.415 443.878C109.693 453.155 122.276 458.367 135.396 458.367C148.517 458.367 161.1 453.155 170.378 443.878C179.655 434.6 184.867 422.017 184.867 408.896C184.867 395.776 179.655 383.193 170.378 373.915C161.1 364.638 148.517 359.426 135.396 359.426C122.276 359.426 109.693 364.638 100.415 373.915C91.1379 383.193 85.9258 395.776 85.9258 408.896V408.896Z" fill="#FE961B"/>
<path d="M161.686 260.047C161.686 271.624 166.284 282.727 174.471 290.913C182.657 299.099 193.759 303.698 205.336 303.698C216.913 303.698 228.016 299.099 236.202 290.913C244.388 282.727 248.987 271.624 248.987 260.047C248.987 248.47 244.388 237.368 236.202 229.181C228.016 220.995 216.913 216.396 205.336 216.396C193.759 216.396 182.657 220.995 174.471 229.181C166.284 237.368 161.686 248.47 161.686 260.047V260.047Z" fill="#FE961B"/>
<path d="M277.986 159.99C277.986 170.023 281.972 179.645 289.066 186.74C296.161 193.834 305.783 197.82 315.816 197.82C325.849 197.82 335.471 193.834 342.566 186.74C349.66 179.645 353.646 170.023 353.646 159.99C353.646 149.957 349.66 140.335 342.566 133.24C335.471 126.146 325.849 122.16 315.816 122.16C305.783 122.16 296.161 126.146 289.066 133.24C281.972 140.335 277.986 149.957 277.986 159.99V159.99Z" fill="#FE961B"/>
</g>
<defs>
<clipPath id="clip0_689_2">
<rect width="1024" height="1024" fill="white"/>
</clipPath>
</defs>
</svg>
